<svg width="50" height="50" viewBox="0 0 50 50" fill="none" xmlns="http://www.w3.org/2000/svg">
<circle cx="25" cy="25" r="25" fill="white" fill-opacity="0.25"/>
<circle cx="25" cy="25" r="16" fill="white"/>
<path d="M31.875 17.5C32.2202 17.5 32.5 17.7798 32.5 18.125V22.2916C32.5 22.6368 32.2202 22.9166 31.875 22.9166C31.5298 22.9166 31.25 22.6368 31.25 22.2916V19.6339L26.2752 24.6086C26.0312 24.8527 25.6355 24.8527 25.3914 24.6086L23.5417 22.7589L18.5669 27.7336C18.3229 27.9777 17.9271 27.9777 17.6831 27.7336C17.439 27.4895 17.439 27.0938 17.6831 26.8497L23.0997 21.4331C23.3438 21.189 23.7395 21.189 23.9836 21.4331L25.8333 23.2828L30.3662 18.75L27.7083 18.75C27.3632 18.75 27.0833 18.4702 27.0833 18.125C27.0833 17.7798 27.3632 17.5 27.7083 17.5L31.875 17.5ZM34.1667 29.5833C34.1667 32.1147 32.1147 34.1667 29.5833 34.1667C27.052 34.1667 25 32.1147 25 29.5833C25 27.052 27.052 25 29.5833 25C32.1147 25 34.1667 27.052 34.1667 29.5833ZM32.378 27.622C32.2152 27.4593 31.9514 27.4593 31.7887 27.622L28.75 30.6607L27.378 29.2887C27.2152 29.126 26.9514 29.126 26.7887 29.2887C26.626 29.4514 26.626 29.7152 26.7887 29.878L28.4553 31.5447C28.6181 31.7073 28.8819 31.7073 29.0447 31.5447L32.378 28.2113C32.5407 28.0486 32.5407 27.7847 32.378 27.622Z" fill="#39BA70"/>
</svg>
