<svg width="20" height="20" viewBox="0 0 20 20" fill="none" xmlns="http://www.w3.org/2000/svg">
<g clip-path="url(#clip0_103_1319)">
<path fill-rule="evenodd" clip-rule="evenodd" d="M10.0002 0.833496C4.93766 0.833496 0.833496 4.93766 0.833496 10.0002C0.833496 15.0627 4.93766 19.1668 10.0002 19.1668C15.0627 19.1668 19.1668 15.0627 19.1668 10.0002C19.1668 4.93766 15.0627 0.833496 10.0002 0.833496ZM13.9735 8.45016C14.0467 8.36653 14.1024 8.26911 14.1373 8.16364C14.1723 8.05816 14.1858 7.94676 14.1771 7.83598C14.1683 7.72521 14.1375 7.6173 14.0865 7.5186C14.0354 7.41991 13.9651 7.33242 13.8798 7.26128C13.7944 7.19014 13.6957 7.1368 13.5894 7.10438C13.4831 7.07196 13.3714 7.06113 13.2609 7.07252C13.1504 7.08391 13.0432 7.11728 12.9458 7.17069C12.8483 7.2241 12.7626 7.29645 12.6935 7.3835L9.11016 11.6827L7.256 9.82766C7.09883 9.67586 6.88833 9.59187 6.66983 9.59377C6.45133 9.59567 6.24232 9.68331 6.08781 9.83781C5.93331 9.99232 5.84567 10.2013 5.84377 10.4198C5.84187 10.6383 5.92586 10.8488 6.07766 11.006L8.57766 13.506C8.65954 13.5878 8.75757 13.6517 8.86551 13.6935C8.97344 13.7354 9.08891 13.7543 9.20455 13.749C9.3202 13.7438 9.43348 13.7145 9.53717 13.663C9.64087 13.6116 9.7327 13.5391 9.80683 13.4502L13.9735 8.45016Z" fill="#039C53"/>
</g>
<defs>
<clipPath id="clip0_103_1319">
<rect width="20" height="20" fill="white"/>
</clipPath>
</defs>
</svg>
