<svg width="20" height="20" viewBox="0 0 20 20" fill="none" xmlns="http://www.w3.org/2000/svg">
<path d="M9.99984 1.6665C5.39151 1.6665 1.6665 5.39151 1.6665 9.99984C1.6665 14.6082 5.39151 18.3332 9.99984 18.3332C14.6082 18.3332 18.3332 14.6082 18.3332 9.99984C18.3332 5.39151 14.6082 1.6665 9.99984 1.6665ZM13.5832 13.5832C13.5061 13.6604 13.4145 13.7217 13.3137 13.7635C13.2129 13.8054 13.1048 13.8269 12.9957 13.8269C12.8865 13.8269 12.7785 13.8054 12.6777 13.7635C12.5768 13.7217 12.4853 13.6604 12.4082 13.5832L9.99984 11.1748L7.59151 13.5832C7.43569 13.739 7.22436 13.8265 7.00401 13.8265C6.78365 13.8265 6.57232 13.739 6.41651 13.5832C6.26069 13.4274 6.17315 13.216 6.17315 12.9957C6.17315 12.8866 6.19465 12.7785 6.2364 12.6777C6.27815 12.5769 6.33935 12.4853 6.41651 12.4082L8.82484 9.99984L6.41651 7.59151C6.26069 7.43569 6.17315 7.22436 6.17315 7.00401C6.17315 6.78365 6.26069 6.57232 6.41651 6.41651C6.57232 6.26069 6.78365 6.17315 7.00401 6.17315C7.22436 6.17315 7.43569 6.26069 7.59151 6.41651L9.99984 8.82484L12.4082 6.41651C12.4853 6.33935 12.5769 6.27815 12.6777 6.2364C12.7785 6.19465 12.8866 6.17315 12.9957 6.17315C13.1048 6.17315 13.2128 6.19465 13.3136 6.2364C13.4144 6.27815 13.506 6.33935 13.5832 6.41651C13.6603 6.49366 13.7215 6.58525 13.7633 6.68605C13.805 6.78686 13.8265 6.8949 13.8265 7.00401C13.8265 7.11311 13.805 7.22115 13.7633 7.32196C13.7215 7.42276 13.6603 7.51435 13.5832 7.59151L11.1748 9.99984L13.5832 12.4082C13.8998 12.7248 13.8998 13.2582 13.5832 13.5832Z" fill="#CC4B4B"/>
</svg>
