<svg width="50" height="50" viewBox="0 0 50 50" fill="none" xmlns="http://www.w3.org/2000/svg">
<circle cx="25" cy="25" r="25" fill="white" fill-opacity="0.25"/>
<circle cx="25" cy="25" r="16" fill="white"/>
<path d="M24.1667 27.0832C24.1667 28.2332 26.0325 29.1665 28.3333 29.1665C30.6342 29.1665 32.5 28.2332 32.5 27.0832M17.5 22.9165C17.5 24.0665 19.3658 24.9998 21.6667 24.9998C22.605 24.9998 23.4708 24.8448 24.1667 24.5832M17.5 25.8332C17.5 26.9832 19.3658 27.9165 21.6667 27.9165C22.605 27.9165 23.47 27.7615 24.1667 27.4998M28.3333 25.8332C26.0325 25.8332 24.1667 24.8998 24.1667 23.7498C24.1667 22.5998 26.0325 21.6665 28.3333 21.6665C30.6342 21.6665 32.5 22.5998 32.5 23.7498C32.5 24.8998 30.6342 25.8332 28.3333 25.8332Z" stroke="black" stroke-width="1.5" stroke-linecap="round" stroke-linejoin="round"/>
<path d="M17.5 19.5835V28.7502C17.5 29.9002 19.3658 30.8335 21.6667 30.8335C22.605 30.8335 23.47 30.6785 24.1667 30.4168M24.1667 30.4168V23.7502M24.1667 30.4168C24.1667 31.5668 26.0325 32.5002 28.3333 32.5002C30.6342 32.5002 32.5 31.5668 32.5 30.4168V23.7502M25.8333 22.0835V19.5835" stroke="black" stroke-width="1.5" stroke-linecap="round" stroke-linejoin="round"/>
<path d="M21.6667 21.6667C19.3658 21.6667 17.5 20.7333 17.5 19.5833C17.5 18.4333 19.3658 17.5 21.6667 17.5C23.9675 17.5 25.8333 18.4333 25.8333 19.5833C25.8333 20.7333 23.9675 21.6667 21.6667 21.6667Z" stroke="black" stroke-width="1.5" stroke-linecap="round" stroke-linejoin="round"/>
</svg>
