<svg width="10" height="10" viewBox="0 0 10 10" fill="none" xmlns="http://www.w3.org/2000/svg">
<g id="Arrow Trending Lines / undefined / Glyph: undefined">
<path id="Vector" d="M7.08333 1.66659C6.85321 1.66659 6.66667 1.48004 6.66667 1.24992C6.66667 1.0198 6.85321 0.833252 7.08333 0.833252H8.75C8.98012 0.833252 9.16667 1.0198 9.16667 1.24992V2.91659C9.16667 3.1467 8.98012 3.33325 8.75 3.33325C8.51987 3.33325 8.33333 3.1467 8.33333 2.91659V2.25584L5.91962 4.66954C5.75692 4.83225 5.49308 4.83225 5.33037 4.66954L4.16667 3.50584L1.9613 5.71121C1.79857 5.87392 1.53476 5.87392 1.37204 5.71121C1.20932 5.5485 1.20932 5.28467 1.37204 5.12196L3.87204 2.62196C3.95018 2.54382 4.05616 2.49992 4.16667 2.49992C4.27717 2.49992 4.38317 2.54382 4.46129 2.62196L5.625 3.78566L7.74408 1.66659H7.08333ZM2.08333 7.49992V8.74992C2.08333 8.98004 1.89678 9.16659 1.66667 9.16659C1.43655 9.16659 1.25 8.98004 1.25 8.74992V7.49992C1.25 7.26979 1.43655 7.08325 1.66667 7.08325C1.89678 7.08325 2.08333 7.26979 2.08333 7.49992ZM4.16667 5.83325C4.16667 5.60313 3.98012 5.41659 3.75 5.41659C3.51988 5.41659 3.33333 5.60313 3.33333 5.83325V8.74992C3.33333 8.98004 3.51988 9.16659 3.75 9.16659C3.98012 9.16659 4.16667 8.98004 4.16667 8.74992V5.83325ZM5.83333 6.24992C6.06346 6.24992 6.25 6.43646 6.25 6.66659V8.74992C6.25 8.98004 6.06346 9.16659 5.83333 9.16659C5.60321 9.16659 5.41667 8.98004 5.41667 8.74992V6.66659C5.41667 6.43646 5.60321 6.24992 5.83333 6.24992ZM8.33333 4.58325C8.33333 4.35313 8.14679 4.16659 7.91667 4.16659C7.68654 4.16659 7.5 4.35313 7.5 4.58325V8.74992C7.5 8.98004 7.68654 9.16659 7.91667 9.16659C8.14679 9.16659 8.33333 8.98004 8.33333 8.74992V4.58325Z" fill="#039C53"/>
</g>
</svg>
