<svg width="180" height="174" viewBox="0 0 180 174" fill="none" xmlns="http://www.w3.org/2000/svg">
<g opacity="0.15">
<path fill-rule="evenodd" clip-rule="evenodd" d="M88.838 6.48811C124.498 6.02045 158.087 27.0605 168.746 61.1252C179.098 94.2091 161.133 127.731 133.182 148.204C104.885 168.931 66.862 177.099 38.4045 156.594C9.62458 135.857 3.82146 96.783 15.1251 63.1399C26.0422 30.6469 54.592 6.93722 88.838 6.48811Z" fill="#F2F3F4"/>
<path d="M45.6037 75.1084C42.6463 72.254 40.4858 68.721 39.3199 64.8322C38.1539 60.9434 38.0196 56.8229 38.9292 52.8472C39.8388 48.8715 41.7633 45.1675 44.5268 42.0738C47.2903 38.98 50.8047 36.595 54.7488 35.137C55.1729 34.9802 55.6288 34.9247 56.0775 34.9751C56.5261 35.0255 56.9541 35.1803 57.3248 35.4264C57.6954 35.6724 57.9976 36.0023 58.2055 36.3878C58.4134 36.7732 58.5208 37.2027 58.5184 37.6394L58.4105 55.1518L68.6387 55.0931L68.7466 37.5807C68.7483 37.1433 68.86 36.7117 69.0721 36.3228C69.2843 35.934 69.5905 35.5995 69.9643 35.3483C70.3382 35.0971 70.7687 34.9367 71.2186 34.8807C71.6685 34.8248 72.1245 34.875 72.5473 35.0272C76.9705 36.6161 80.8245 39.3836 83.6661 43.0113C86.5077 46.639 88.2214 50.9797 88.6102 55.534C88.999 60.0883 88.0472 64.6714 85.8641 68.7563C83.6809 72.8411 80.3553 76.2617 76.2694 78.6248L76.2924 127.555C76.3141 130.931 74.9457 134.193 72.4882 136.623C70.0308 139.054 66.6856 140.453 63.1885 140.514C59.6915 140.575 56.329 139.293 53.8409 136.949C51.3528 134.605 49.9428 131.392 49.9211 128.016L49.3112 78.0579C47.9793 77.1924 46.7378 76.2047 45.6037 75.1084ZM49.7471 44.5364C47.617 46.5917 45.9978 49.0857 45.0139 51.8267C44.03 54.5676 43.7076 57.4824 44.0716 60.347C44.4356 63.2115 45.4761 65.9495 47.1133 68.3504C48.7505 70.7513 50.9407 72.7512 53.5155 74.1962C53.9271 74.4279 54.2688 74.7585 54.5081 75.1563C54.7473 75.5541 54.876 76.0057 54.8818 76.468L55.5183 127.888C55.531 129.832 56.3431 131.683 57.7759 133.032C59.2088 134.382 61.145 135.12 63.1587 135.085C65.1724 135.049 67.0985 134.243 68.5134 132.844C69.9284 131.444 70.7161 129.566 70.7035 127.622L70.6746 77.0876C70.674 76.585 70.8187 76.0905 71.0925 75.6599C71.3663 75.2293 71.7582 74.8795 72.2242 74.6501C75.305 73.1374 77.9283 70.8723 79.8299 68.083C81.7314 65.2937 82.8441 62.0786 83.0558 58.7615C83.2675 55.4443 82.5708 52.1423 81.0358 49.1879C79.5008 46.2334 77.1818 43.7309 74.3122 41.9324L74.2187 57.7607C74.2142 58.4767 73.9153 59.1651 73.3878 59.6743C72.8603 60.1836 72.1473 60.4722 71.4057 60.4766L55.5849 60.5674C55.217 60.57 54.8531 60.5024 54.514 60.3687C54.1749 60.2349 53.8672 60.0376 53.6086 59.7879C53.3501 59.5383 53.1456 59.2412 53.0071 58.9138C52.8686 58.5864 52.7986 58.235 52.8013 57.8799L52.8987 42.0553C51.764 42.7766 50.7078 43.608 49.7471 44.5364Z" fill="#1D3557"/>
<line x1="11" y1="-11" x2="88.4491" y2="-11" transform="matrix(0.00615786 -0.999722 1.00022 -0.00574245 128.206 138.824)" stroke="#1D3557" stroke-width="22" stroke-linecap="round"/>
<line x1="11" y1="-11" x2="42.7807" y2="-11" transform="matrix(1.00022 -0.00574175 -0.00615837 0.999722 72.7778 100.917)" stroke="#1D3557" stroke-width="22" stroke-linecap="square"/>
</g>
</svg>
