<svg width="25" height="25" viewBox="0 0 25 25" fill="none" xmlns="http://www.w3.org/2000/svg">
<path d="M14.0787 2.58281C13.638 2.20815 13.0784 2.00244 12.5 2.00244C11.9216 2.00244 11.362 2.20815 10.9213 2.58281L3.60875 8.79806C3.33959 9.02687 3.12339 9.31145 2.97511 9.63209C2.82683 9.95274 2.75002 10.3018 2.75 10.6551V20.3751C2.75 20.8723 2.94754 21.3492 3.29917 21.7009C3.65081 22.0525 4.12772 22.2501 4.625 22.2501H8.375C8.87228 22.2501 9.34919 22.0525 9.70083 21.7009C10.0525 21.3492 10.25 20.8723 10.25 20.3751V15.1251C10.25 15.0256 10.2895 14.9302 10.3598 14.8599C10.4302 14.7896 10.5255 14.7501 10.625 14.7501H14C14.0995 14.7501 14.1948 14.7896 14.2652 14.8599C14.3355 14.9302 14.375 15.0256 14.375 15.1251V20.3751C14.375 20.8723 14.5725 21.3492 14.9242 21.7009C15.2758 22.0525 15.7527 22.2501 16.25 22.2501H20.375C20.8723 22.2501 21.3492 22.0525 21.7008 21.7009C22.0525 21.3492 22.25 20.8723 22.25 20.3751V10.6551C22.25 10.3018 22.1732 9.95274 22.0249 9.63209C21.8766 9.31145 21.6604 9.02687 21.3913 8.79806L14.0787 2.58281Z" fill="#C4C4C4"/>
</svg>
