<svg width="73" height="93" viewBox="0 0 73 93" fill="none" xmlns="http://www.w3.org/2000/svg">
<path id="Vector" d="M63.0718 8.74937C57.0996 5.3356 53.7498 3.41377 47.7776 0L9.27097 10.235C5.83185 14.6792 3.45826 17.739 0.0191409 22.1832L0 87.6707C4.18565 90.0477 5.2129 90.623 9.39855 93L67.2702 59.2858C69.4013 54.1336 70.8689 50.5618 73 45.4158L63.0782 8.75569L63.0718 8.74937ZM45.9017 46.8445C41.3715 48.0457 38.8321 48.7221 34.2955 49.9233L24.3546 44.24C23.1359 39.7515 22.4532 37.2291 21.2409 32.7406L26.9834 22.8912C31.5136 21.6901 34.053 21.0137 38.5896 19.8062L48.5305 25.4958C49.7492 29.9843 50.4319 32.5004 51.6442 36.9952L45.9017 46.8445Z" fill="#14161C" fill-opacity="0.1"/>
</svg>
