<svg width="50" height="50" viewBox="0 0 50 50" fill="none" xmlns="http://www.w3.org/2000/svg">
<circle cx="25" cy="25" r="25" fill="white" fill-opacity="0.25"/>
<circle cx="25" cy="25" r="16" fill="white"/>
<path d="M24.4283 27.916C24.572 27.4714 24.7716 27.052 25.0187 26.666H19.3775C18.3425 26.666 17.5034 27.5051 17.5034 28.5401V29.0215C17.5034 29.7654 17.7688 30.485 18.252 31.0507C19.5572 32.5793 21.5456 33.3337 24.1672 33.3337C24.6671 33.3337 25.144 33.3062 25.5976 33.2512C25.2717 32.8972 24.9923 32.4997 24.7692 32.0684C24.5737 32.0786 24.3731 32.0837 24.1672 32.0837C21.8852 32.0837 20.247 31.4622 19.2026 30.2391C18.9127 29.8996 18.7534 29.4678 18.7534 29.0215V28.5401C18.7534 28.1954 19.0328 27.916 19.3775 27.916H24.4283ZM24.1672 16.6699C26.4683 16.6699 28.3338 18.5354 28.3338 20.8366C28.3338 23.1378 26.4683 25.0032 24.1672 25.0032C21.8659 25.0032 20.0005 23.1378 20.0005 20.8366C20.0005 18.5354 21.8659 16.6699 24.1672 16.6699ZM24.1672 17.9199C22.5563 17.9199 21.2505 19.2258 21.2505 20.8366C21.2505 22.4474 22.5563 23.7532 24.1672 23.7532C25.778 23.7532 27.0838 22.4474 27.0838 20.8366C27.0838 19.2258 25.778 17.9199 24.1672 17.9199ZM34.1668 29.5833C34.1668 32.1147 32.1148 34.1667 29.5835 34.1667C27.0522 34.1667 25.0002 32.1147 25.0002 29.5833C25.0002 27.052 27.0522 25 29.5835 25C32.1148 25 34.1668 27.052 34.1668 29.5833ZM30.0463 27.0172C29.9007 26.5498 29.2663 26.5498 29.1207 27.0172L28.6565 28.5064H27.1544C26.683 28.5064 26.487 29.1352 26.8683 29.4241L28.0836 30.3445L27.6194 31.8337C27.4737 32.301 27.9868 32.6897 28.3682 32.4008L29.5835 31.4805L30.7987 32.4008C31.1802 32.6897 31.6932 32.301 31.5476 31.8337L31.0834 30.3445L32.2987 29.4241C32.68 29.1352 32.484 28.5064 32.0126 28.5064H30.5105L30.0463 27.0172Z" fill="#50ABFF"/>
</svg>
