<svg width="19" height="20" viewBox="0 0 19 20" fill="none" xmlns="http://www.w3.org/2000/svg">
<path fill-rule="evenodd" clip-rule="evenodd" d="M9.83329 0.833496C4.77079 0.833496 0.666626 4.93766 0.666626 10.0002C0.666626 15.0627 4.77079 19.1668 9.83329 19.1668C14.8958 19.1668 19 15.0627 19 10.0002C19 4.93766 14.8958 0.833496 9.83329 0.833496ZM13.8066 8.45016C13.8798 8.36653 13.9355 8.26911 13.9704 8.16364C14.0054 8.05816 14.0189 7.94676 14.0102 7.83598C14.0015 7.72521 13.9707 7.6173 13.9196 7.5186C13.8686 7.41991 13.7983 7.33242 13.7129 7.26128C13.6276 7.19014 13.5288 7.1368 13.4225 7.10438C13.3163 7.07196 13.2046 7.06113 13.094 7.07252C12.9835 7.08391 12.8764 7.11728 12.7789 7.17069C12.6815 7.2241 12.5957 7.29645 12.5266 7.3835L8.94329 11.6827L7.08913 9.82766C6.93196 9.67586 6.72146 9.59187 6.50296 9.59377C6.28446 9.59567 6.07545 9.68331 5.92094 9.83781C5.76644 9.99232 5.6788 10.2013 5.6769 10.4198C5.675 10.6383 5.75899 10.8488 5.91079 11.006L8.41079 13.506C8.49267 13.5878 8.5907 13.6517 8.69864 13.6935C8.80657 13.7354 8.92204 13.7543 9.03768 13.749C9.15333 13.7438 9.26661 13.7145 9.3703 13.663C9.474 13.6116 9.56583 13.5391 9.63996 13.4502L13.8066 8.45016Z" fill="#14161C"/>
</svg>
