<svg
  width="20"
  height="25"
  viewBox="0 0 20 25"
  fill="none"
  xmlns="http://www.w3.org/2000/svg"
>
<path
    id="Vector"
    d="M16.8846 2.39023C15.3373 1.50925 14.4694 1.0133 12.922 0.132324L2.94515 2.77361C2.05409 3.92051 1.43911 4.71012 0.54805 5.85702L0.543091 22.757C1.62757 23.3704 1.89372 23.5189 2.9782 24.1323L17.9724 15.4319C18.5246 14.1023 18.9048 13.1805 19.457 11.8525L16.8863 2.39186L16.8846 2.39023ZM12.436 12.2212C11.2622 12.5312 10.6043 12.7058 9.42886 13.0157L6.85322 11.5491C6.53747 10.3908 6.36058 9.73983 6.04648 8.58151L7.53432 6.03974C8.70807 5.72977 9.36603 5.55521 10.5414 5.2436L13.1171 6.71189C13.4328 7.87021 13.6097 8.51952 13.9238 9.67947L12.436 12.2212Z"
    fill="#ffde00"
  />
</svg>
