<svg width="24" height="25" viewBox="0 0 24 25" fill="none" xmlns="http://www.w3.org/2000/svg">
<g id="fluent:settings-28-filled">
<path id="Vector" d="M14.3082 2.68698C13.5539 2.51853 12.784 2.42919 12.0111 2.42041C11.2191 2.42898 10.4485 2.51898 9.69337 2.68698C9.53234 2.723 9.3866 2.80847 9.27656 2.93143C9.16651 3.05438 9.09767 3.20867 9.07966 3.3727L8.90051 4.98155C8.87483 5.20848 8.79639 5.42624 8.67146 5.61742C8.54653 5.80859 8.37859 5.96787 8.18106 6.0825C7.98354 6.19713 7.76193 6.26393 7.53396 6.27756C7.30599 6.29119 7.078 6.25126 6.86823 6.16098L5.39394 5.51212C5.2443 5.44624 5.07788 5.42851 4.91771 5.46137C4.75754 5.49423 4.61155 5.57607 4.49994 5.69555C3.4337 6.83646 2.63983 8.20413 2.17794 9.69584C2.12928 9.85288 2.1307 10.0212 2.182 10.1774C2.2333 10.3336 2.33193 10.4699 2.46423 10.5676L3.77309 11.5318C3.95719 11.6673 4.10685 11.8442 4.21 12.0482C4.31316 12.2522 4.3669 12.4775 4.3669 12.7061C4.3669 12.9347 4.31316 13.1601 4.21 13.3641C4.10685 13.5681 3.95719 13.7449 3.77309 13.8804L2.46423 14.8473C2.3321 14.9448 2.23358 15.081 2.18228 15.2371C2.13099 15.3931 2.12948 15.5612 2.17794 15.7181C2.63887 17.2111 3.43217 18.5803 4.49823 19.7227C4.60974 19.8423 4.75568 19.9243 4.91585 19.9573C5.07603 19.9904 5.2425 19.9728 5.39223 19.907L6.87337 19.2564C7.08192 19.1653 7.30895 19.1246 7.53616 19.1374C7.76336 19.1502 7.98438 19.2162 8.18137 19.3301C8.5808 19.5616 8.84737 19.9687 8.89966 20.4281L9.07794 22.037C9.09585 22.1988 9.16324 22.3512 9.27093 22.4733C9.37861 22.5954 9.52135 22.6813 9.67966 22.7193C11.2049 23.0829 12.7942 23.0829 14.3194 22.7193C14.4777 22.6813 14.6204 22.5954 14.7281 22.4733C14.8358 22.3512 14.9032 22.1988 14.9211 22.037L15.0994 20.4256C15.1236 20.1985 15.201 19.9803 15.3254 19.7888C15.4498 19.5973 15.6176 19.4379 15.8152 19.3235C16.0128 19.209 16.2346 19.1429 16.4626 19.1303C16.6906 19.1178 16.9184 19.1592 17.1274 19.2513L18.6077 19.9018C18.7574 19.9676 18.9239 19.9852 19.084 19.9522C19.2442 19.9192 19.3902 19.8372 19.5017 19.7176C20.5671 18.5764 21.3604 17.2087 21.8219 15.7173C21.8706 15.5602 21.8692 15.3919 21.8179 15.2357C21.7666 15.0795 21.668 14.9432 21.5357 14.8456L20.2285 13.8804C20.0444 13.745 19.8946 13.5682 19.7914 13.3642C19.6882 13.1603 19.6344 12.9349 19.6343 12.7063C19.6342 12.4778 19.6879 12.2524 19.7909 12.0483C19.894 11.8443 20.0436 11.6674 20.2277 11.5318L21.5348 10.5658C21.6668 10.4682 21.7651 10.3319 21.8163 10.1759C21.8674 10.0199 21.8688 9.85182 21.8202 9.69498C21.3587 8.20333 20.5651 6.83565 19.4991 5.6947C19.3875 5.57521 19.2415 5.49338 19.0813 5.46051C18.9212 5.42765 18.7547 5.44539 18.6051 5.51127L17.1308 6.16012C16.9474 6.24179 16.7487 6.28385 16.5479 6.28355C16.1889 6.28289 15.8427 6.14976 15.5757 5.90966C15.3087 5.66956 15.1397 5.33939 15.1011 4.98241L14.9211 3.37184C14.9031 3.20815 14.8345 3.05416 14.7248 2.93138C14.6151 2.80859 14.4689 2.72315 14.3082 2.68698ZM11.9999 16.1347C11.0906 16.1347 10.2186 15.7735 9.57558 15.1305C8.93259 14.4875 8.57137 13.6154 8.57137 12.7061C8.57137 11.7968 8.93259 10.9247 9.57558 10.2818C10.2186 9.63878 11.0906 9.27755 11.9999 9.27755C12.9093 9.27755 13.7813 9.63878 14.4243 10.2818C15.0673 10.9247 15.4285 11.7968 15.4285 12.7061C15.4285 13.6154 15.0673 14.4875 14.4243 15.1305C13.7813 15.7735 12.9093 16.1347 11.9999 16.1347Z" fill="#C4C4C4"/>
</g>
</svg>
