<svg width="233" height="149" viewBox="0 0 233 149" fill="none" xmlns="http://www.w3.org/2000/svg">
<g opacity="0.5">
<circle cx="122.289" cy="74.1982" r="74.1982" fill="#F2F3F4"/>
<g opacity="0.5">
<path d="M50.0133 33.3622C44.6137 11.8521 21.134 19.6048 10.0691 26.17L31.4243 30.8172C39.6566 39.9347 29.8384 45.7548 23.9002 47.5252L4.86865 46.1974C24.5641 64.4544 29.1007 57.5942 37.6207 55.8238C44.4366 54.4075 49.7551 56.4139 51.5624 57.5942L176.374 106.833C187.882 112.144 186.775 118.451 190.316 122.102C206.426 139.364 225.428 130.327 232.916 123.651C232.916 123.651 212.269 120.398 210.233 118.451C195.804 102.518 207.319 95.6573 214.88 94.2189C221.408 95.6942 234.155 98.4457 232.916 97.649C214.548 75.5193 193.525 84.2605 188.767 86.8055C184.96 88.8414 179.952 87.6538 177.923 86.8055L55.6564 39.7798C54.1811 39.3003 50.987 37.3455 50.0133 33.3622Z" fill="#797979"/>
<path d="M45.1447 33.3622C39.745 11.8521 16.2654 19.6048 5.20049 26.17L26.5557 30.8172C34.7879 39.9347 24.9697 45.7548 19.0316 47.5252L0 46.1974C19.6955 64.4544 24.2321 57.5942 32.752 55.8238C39.568 54.4075 44.8865 56.4139 46.6937 57.5942L171.505 106.833C183.013 112.144 181.906 118.451 185.447 122.102C201.558 139.364 220.56 130.327 228.047 123.651C228.047 123.651 207.4 120.398 205.364 118.451C190.935 102.518 202.45 95.6573 210.011 94.2189C216.539 95.6942 229.286 98.4457 228.047 97.649C209.679 75.5193 188.656 84.2605 183.898 86.8055C180.092 88.8414 175.083 87.6538 173.055 86.8055L50.7878 39.7798C49.3124 39.3003 46.1184 37.3455 45.1447 33.3622Z" fill="#AAA4A4"/>
<path d="M177.975 76.9186C181.9 61.2821 198.969 66.9179 207.012 71.6904L191.488 75.0686C185.504 81.6964 192.641 85.9273 196.958 87.2142L210.792 86.249C196.475 99.5207 193.177 94.5338 186.984 93.2468C182.029 92.2173 178.163 93.6758 176.849 94.5338L86.1188 130.327C77.7536 134.188 78.558 138.773 75.9841 141.427C64.2728 153.975 50.4595 147.406 45.0167 142.553C45.0167 142.553 60.0258 140.188 61.5058 138.773C71.9945 127.19 63.6239 122.203 58.1276 121.158C53.3819 122.23 44.1159 124.23 45.0167 123.651C58.3689 107.564 73.6515 113.919 77.1102 115.769C79.8771 117.249 83.5181 116.385 84.9927 115.769L173.873 81.5838C174.945 81.2353 177.267 79.8143 177.975 76.9186Z" fill="#B0ADAD"/>
<path d="M181.514 76.9186C185.439 61.2821 202.507 66.9179 210.551 71.6904L195.027 75.0686C189.042 81.6964 196.18 85.9273 200.496 87.2142L214.331 86.249C200.014 99.5207 196.716 94.5338 190.522 93.2468C185.568 92.2173 181.701 93.6758 180.388 94.5338L89.6574 130.327C81.2922 134.188 82.0966 138.773 79.5226 141.427C67.8114 153.975 53.9981 147.406 48.5553 142.553C48.5553 142.553 63.5644 140.188 65.0444 138.773C75.5331 127.19 67.1625 122.203 61.6662 121.158C56.9205 122.23 47.6544 124.23 48.5553 123.651C61.9075 107.564 77.19 113.919 80.6487 115.769C83.4157 117.249 87.0567 116.385 88.5313 115.769L177.412 81.5838C178.484 81.2353 180.806 79.8143 181.514 76.9186Z" fill="#D7D7D7"/>
</g>
</g>
</svg>
