<svg width="31" height="29" viewBox="0 0 31 29" fill="none" xmlns="http://www.w3.org/2000/svg">
<g id="Wallet / undefined / Glyph: undefined">
<rect x="0.09375" width="30.8125" height="29" rx="8" fill="#14161C" fill-opacity="0.1"/>
<path id="Vector" d="M9.0166 9.66662V19.1474C9.0166 20.4821 10.0986 21.5641 11.4333 21.5641H20.3563C21.691 21.5641 22.773 20.4821 22.773 19.1474V12.8269C22.773 11.6841 21.9798 10.7266 20.914 10.4749V9.85252C20.914 8.92851 20.1649 8.17944 19.241 8.17944H10.6897C9.8285 8.17944 9.11928 8.83009 9.02681 9.66662H9.0166ZM10.6897 10.4102C10.3817 10.4102 10.132 10.1605 10.132 9.85252C10.132 9.54452 10.3817 9.29483 10.6897 9.29483H19.241C19.549 9.29483 19.7987 9.54452 19.7987 9.85252V10.4102H10.6897ZM18.8692 15.6153H20.3563C20.6643 15.6153 20.914 15.865 20.914 16.173C20.914 16.481 20.6643 16.7307 20.3563 16.7307H18.8692C18.5612 16.7307 18.3115 16.481 18.3115 16.173C18.3115 15.865 18.5612 15.6153 18.8692 15.6153Z" fill="#14161C"/>
</g>
</svg>
